<mxfile host="Electron" modified="2024-03-01T12:05:37.263Z" agent="Mozilla/5.0 (Windows NT 10.0; Win64; x64) AppleWebKit/537.36 (KHTML, like Gecko) draw.io/23.1.5 Chrome/120.0.6099.109 Electron/28.1.0 Safari/537.36" etag="HJhCd8eS3h9kRFy-3NMT" version="23.1.5" type="device">
  <diagram name="Page-1" id="0783ab3e-0a74-02c8-0abd-f7b4e66b4bec">
    <mxGraphModel dx="1434" dy="884" grid="1" gridSize="10" guides="1" tooltips="1" connect="1" arrows="1" fold="1" page="1" pageScale="1" pageWidth="850" pageHeight="1100" background="none" math="0" shadow="0">
      <root>
        <mxCell id="0" />
        <mxCell id="1" parent="0" />
        <mxCell id="1c1d494c118603dd-1" value="Добавление файлов" style="swimlane;html=1;childLayout=stackLayout;startSize=20;rounded=0;shadow=0;comic=0;labelBackgroundColor=none;strokeWidth=1;fontFamily=Verdana;fontSize=12;align=center;" parent="1" vertex="1">
          <mxGeometry x="170" y="20" width="620" height="580" as="geometry" />
        </mxCell>
        <mxCell id="1c1d494c118603dd-2" value="Автор" style="swimlane;html=1;startSize=20;" parent="1c1d494c118603dd-1" vertex="1">
          <mxGeometry y="20" width="280" height="560" as="geometry" />
        </mxCell>
        <mxCell id="yDDlAVwDFiMJ1X_nCUAS-12" style="edgeStyle=orthogonalEdgeStyle;rounded=0;orthogonalLoop=1;jettySize=auto;html=1;entryX=0.5;entryY=0;entryDx=0;entryDy=0;" edge="1" parent="1c1d494c118603dd-2" source="1c1d494c118603dd-6" target="yDDlAVwDFiMJ1X_nCUAS-10">
          <mxGeometry relative="1" as="geometry" />
        </mxCell>
        <mxCell id="1c1d494c118603dd-6" value="Валидация данных" style="rounded=1;whiteSpace=wrap;html=1;shadow=0;comic=0;labelBackgroundColor=none;strokeWidth=1;fontFamily=Verdana;fontSize=12;align=center;arcSize=50;" parent="1c1d494c118603dd-2" vertex="1">
          <mxGeometry x="65" y="170" width="120" height="50" as="geometry" />
        </mxCell>
        <mxCell id="yDDlAVwDFiMJ1X_nCUAS-14" style="edgeStyle=orthogonalEdgeStyle;rounded=0;orthogonalLoop=1;jettySize=auto;html=1;entryX=0;entryY=0.5;entryDx=0;entryDy=0;" edge="1" parent="1c1d494c118603dd-2" source="1c1d494c118603dd-7" target="60571a20871a0731-8">
          <mxGeometry relative="1" as="geometry">
            <Array as="points">
              <mxPoint x="30" y="345" />
              <mxPoint x="30" y="125" />
            </Array>
          </mxGeometry>
        </mxCell>
        <mxCell id="1c1d494c118603dd-7" value="Уведомить пользователя" style="rounded=1;whiteSpace=wrap;html=1;shadow=0;comic=0;labelBackgroundColor=none;strokeWidth=1;fontFamily=Verdana;fontSize=12;align=center;arcSize=50;" parent="1c1d494c118603dd-2" vertex="1">
          <mxGeometry x="75" y="330" width="100" height="30" as="geometry" />
        </mxCell>
        <mxCell id="yDDlAVwDFiMJ1X_nCUAS-4" style="edgeStyle=orthogonalEdgeStyle;rounded=0;orthogonalLoop=1;jettySize=auto;html=1;" edge="1" parent="1c1d494c118603dd-2" source="60571a20871a0731-4" target="60571a20871a0731-8">
          <mxGeometry relative="1" as="geometry" />
        </mxCell>
        <mxCell id="60571a20871a0731-4" value="" style="ellipse;whiteSpace=wrap;html=1;rounded=0;shadow=0;comic=0;labelBackgroundColor=none;strokeWidth=1;fillColor=#000000;fontFamily=Verdana;fontSize=12;align=center;" parent="1c1d494c118603dd-2" vertex="1">
          <mxGeometry x="105" y="40" width="40" height="40" as="geometry" />
        </mxCell>
        <mxCell id="yDDlAVwDFiMJ1X_nCUAS-3" style="edgeStyle=orthogonalEdgeStyle;rounded=0;orthogonalLoop=1;jettySize=auto;html=1;" edge="1" parent="1c1d494c118603dd-2" source="60571a20871a0731-8" target="1c1d494c118603dd-6">
          <mxGeometry relative="1" as="geometry" />
        </mxCell>
        <mxCell id="60571a20871a0731-8" value="Загрузка файла" style="rounded=1;whiteSpace=wrap;html=1;shadow=0;comic=0;labelBackgroundColor=none;strokeWidth=1;fontFamily=Verdana;fontSize=12;align=center;arcSize=50;" parent="1c1d494c118603dd-2" vertex="1">
          <mxGeometry x="75" y="110" width="100" height="30" as="geometry" />
        </mxCell>
        <mxCell id="yDDlAVwDFiMJ1X_nCUAS-13" value="Провал" style="edgeStyle=orthogonalEdgeStyle;rounded=0;orthogonalLoop=1;jettySize=auto;html=1;entryX=0.5;entryY=0;entryDx=0;entryDy=0;" edge="1" parent="1c1d494c118603dd-2" source="yDDlAVwDFiMJ1X_nCUAS-10" target="1c1d494c118603dd-7">
          <mxGeometry relative="1" as="geometry" />
        </mxCell>
        <mxCell id="yDDlAVwDFiMJ1X_nCUAS-10" value="" style="rhombus;whiteSpace=wrap;html=1;" vertex="1" parent="1c1d494c118603dd-2">
          <mxGeometry x="105" y="235" width="40" height="40" as="geometry" />
        </mxCell>
        <mxCell id="yDDlAVwDFiMJ1X_nCUAS-22" style="edgeStyle=orthogonalEdgeStyle;rounded=0;orthogonalLoop=1;jettySize=auto;html=1;entryX=0.5;entryY=0;entryDx=0;entryDy=0;" edge="1" parent="1c1d494c118603dd-2" source="1c1d494c118603dd-11" target="yDDlAVwDFiMJ1X_nCUAS-21">
          <mxGeometry relative="1" as="geometry" />
        </mxCell>
        <mxCell id="1c1d494c118603dd-11" value="Уведомить об успехе" style="rounded=1;whiteSpace=wrap;html=1;shadow=0;comic=0;labelBackgroundColor=none;strokeWidth=1;fontFamily=Verdana;fontSize=12;align=center;arcSize=50;" parent="1c1d494c118603dd-2" vertex="1">
          <mxGeometry x="75" y="440" width="100" height="30" as="geometry" />
        </mxCell>
        <mxCell id="yDDlAVwDFiMJ1X_nCUAS-21" value="" style="ellipse;whiteSpace=wrap;html=1;rounded=0;shadow=0;comic=0;labelBackgroundColor=none;strokeWidth=1;fillColor=#000000;fontFamily=Verdana;fontSize=12;align=center;" vertex="1" parent="1c1d494c118603dd-2">
          <mxGeometry x="105" y="500" width="40" height="40" as="geometry" />
        </mxCell>
        <mxCell id="1c1d494c118603dd-3" value="Сервер" style="swimlane;html=1;startSize=20;" parent="1c1d494c118603dd-1" vertex="1">
          <mxGeometry x="280" y="20" width="340" height="560" as="geometry" />
        </mxCell>
        <mxCell id="yDDlAVwDFiMJ1X_nCUAS-26" style="rounded=0;orthogonalLoop=1;jettySize=auto;html=1;entryX=1;entryY=0.5;entryDx=0;entryDy=0;" edge="1" parent="1c1d494c118603dd-3" source="1c1d494c118603dd-14" target="yDDlAVwDFiMJ1X_nCUAS-23">
          <mxGeometry relative="1" as="geometry" />
        </mxCell>
        <mxCell id="1c1d494c118603dd-14" value="Файл" style="rounded=0;whiteSpace=wrap;html=1;shadow=0;comic=0;labelBackgroundColor=none;strokeWidth=1;fontFamily=Verdana;fontSize=12;align=center;arcSize=50;" parent="1c1d494c118603dd-3" vertex="1">
          <mxGeometry x="90" y="380" width="70" height="30" as="geometry" />
        </mxCell>
        <mxCell id="yDDlAVwDFiMJ1X_nCUAS-8" style="edgeStyle=orthogonalEdgeStyle;rounded=0;orthogonalLoop=1;jettySize=auto;html=1;entryX=0;entryY=0.5;entryDx=0;entryDy=0;" edge="1" parent="1c1d494c118603dd-3" source="yDDlAVwDFiMJ1X_nCUAS-1" target="yDDlAVwDFiMJ1X_nCUAS-7">
          <mxGeometry relative="1" as="geometry" />
        </mxCell>
        <mxCell id="yDDlAVwDFiMJ1X_nCUAS-1" value="Файл" style="rounded=0;whiteSpace=wrap;html=1;shadow=0;comic=0;labelBackgroundColor=none;strokeWidth=1;fontFamily=Verdana;fontSize=12;align=center;arcSize=50;" vertex="1" parent="1c1d494c118603dd-3">
          <mxGeometry x="-40" y="240" width="70" height="30" as="geometry" />
        </mxCell>
        <mxCell id="yDDlAVwDFiMJ1X_nCUAS-15" style="edgeStyle=orthogonalEdgeStyle;rounded=0;orthogonalLoop=1;jettySize=auto;html=1;entryX=0.5;entryY=0;entryDx=0;entryDy=0;" edge="1" parent="1c1d494c118603dd-3" source="yDDlAVwDFiMJ1X_nCUAS-7" target="yDDlAVwDFiMJ1X_nCUAS-9">
          <mxGeometry relative="1" as="geometry" />
        </mxCell>
        <mxCell id="yDDlAVwDFiMJ1X_nCUAS-7" value="Получение файла" style="rounded=1;whiteSpace=wrap;html=1;shadow=0;comic=0;labelBackgroundColor=none;strokeWidth=1;fontFamily=Verdana;fontSize=12;align=center;arcSize=50;" vertex="1" parent="1c1d494c118603dd-3">
          <mxGeometry x="75" y="240" width="100" height="30" as="geometry" />
        </mxCell>
        <mxCell id="yDDlAVwDFiMJ1X_nCUAS-19" style="edgeStyle=orthogonalEdgeStyle;rounded=0;orthogonalLoop=1;jettySize=auto;html=1;entryX=0.5;entryY=0;entryDx=0;entryDy=0;" edge="1" parent="1c1d494c118603dd-3" source="yDDlAVwDFiMJ1X_nCUAS-9" target="1c1d494c118603dd-14">
          <mxGeometry relative="1" as="geometry" />
        </mxCell>
        <mxCell id="yDDlAVwDFiMJ1X_nCUAS-9" value="Сохранение файла" style="rounded=1;whiteSpace=wrap;html=1;shadow=0;comic=0;labelBackgroundColor=none;strokeWidth=1;fontFamily=Verdana;fontSize=12;align=center;arcSize=50;" vertex="1" parent="1c1d494c118603dd-3">
          <mxGeometry x="75" y="310" width="100" height="30" as="geometry" />
        </mxCell>
        <mxCell id="yDDlAVwDFiMJ1X_nCUAS-17" style="edgeStyle=orthogonalEdgeStyle;rounded=0;orthogonalLoop=1;jettySize=auto;html=1;entryX=1;entryY=0.5;entryDx=0;entryDy=0;dashed=1;endArrow=circle;endFill=0;strokeWidth=1;endSize=5;startSize=5;" edge="1" parent="1c1d494c118603dd-3" source="yDDlAVwDFiMJ1X_nCUAS-16" target="yDDlAVwDFiMJ1X_nCUAS-9">
          <mxGeometry relative="1" as="geometry" />
        </mxCell>
        <mxCell id="yDDlAVwDFiMJ1X_nCUAS-18" style="rounded=0;orthogonalLoop=1;jettySize=auto;html=1;entryX=1;entryY=0.5;entryDx=0;entryDy=0;dashed=1;endArrow=circle;endFill=0;arcSize=20;" edge="1" parent="1c1d494c118603dd-3" source="yDDlAVwDFiMJ1X_nCUAS-16" target="1c1d494c118603dd-14">
          <mxGeometry relative="1" as="geometry" />
        </mxCell>
        <mxCell id="yDDlAVwDFiMJ1X_nCUAS-16" value="Файл сохраняется в каталоге соответствующего курса" style="shape=note;whiteSpace=wrap;html=1;backgroundOutline=1;darkOpacity=0.05;" vertex="1" parent="1c1d494c118603dd-3">
          <mxGeometry x="210" y="285" width="120" height="80" as="geometry" />
        </mxCell>
        <mxCell id="yDDlAVwDFiMJ1X_nCUAS-23" value="Отпровляет сообщение об успехе" style="rounded=1;whiteSpace=wrap;html=1;shadow=0;comic=0;labelBackgroundColor=none;strokeWidth=1;fontFamily=Verdana;fontSize=12;align=center;arcSize=50;" vertex="1" parent="1c1d494c118603dd-3">
          <mxGeometry x="10" y="435" width="110" height="40" as="geometry" />
        </mxCell>
        <mxCell id="yDDlAVwDFiMJ1X_nCUAS-11" value="Успех" style="edgeStyle=orthogonalEdgeStyle;rounded=0;orthogonalLoop=1;jettySize=auto;html=1;entryX=0;entryY=0.5;entryDx=0;entryDy=0;" edge="1" parent="1c1d494c118603dd-1" source="yDDlAVwDFiMJ1X_nCUAS-10" target="yDDlAVwDFiMJ1X_nCUAS-1">
          <mxGeometry relative="1" as="geometry" />
        </mxCell>
        <mxCell id="yDDlAVwDFiMJ1X_nCUAS-25" style="edgeStyle=orthogonalEdgeStyle;rounded=0;orthogonalLoop=1;jettySize=auto;html=1;entryX=1;entryY=0.5;entryDx=0;entryDy=0;" edge="1" parent="1c1d494c118603dd-1" source="yDDlAVwDFiMJ1X_nCUAS-23" target="1c1d494c118603dd-11">
          <mxGeometry relative="1" as="geometry" />
        </mxCell>
      </root>
    </mxGraphModel>
  </diagram>
</mxfile>
